HIERARCHY
ROOT Hips
{
 OFFSET 0.000000 0.000000 0.000000
 CHANNELS 6 Xposition Yposition Zposition Yrotation Xrotation Zrotation
 JOINT Chest
 {
  OFFSET 0.000000 9.585900 0.002600
  CHANNELS 3 Yrotation Xrotation Zrotation
  JOINT Chest2
  {
   OFFSET 0.000000 9.601200 -0.005300
   CHANNELS 3 Yrotation Xrotation Zrotation
   JOINT Chest3
   {
    OFFSET 0.000000 9.561800 0.000000
    CHANNELS 3 Yrotation Xrotation Zrotation
    JOINT Chest4
    {
     OFFSET 0.000000 9.552100 0.000000
     CHANNELS 3 Yrotation Xrotation Zrotation
     JOINT Neck
     {
      OFFSET 0.000000 14.453000 0.000000
      CHANNELS 3 Yrotation Xrotation Zrotation
      JOINT Head
      {
       OFFSET 0.000000 8.936500 -0.011300
       CHANNELS 3 Yrotation Xrotation Zrotation
       End Site
       {
        OFFSET 0.000000 17.073600 -0.006000
       }
      }
     }
     JOINT RightCollar
     {
      OFFSET -2.921100 9.558500 0.000000
      CHANNELS 3 Yrotation Xrotation Zrotation
      JOINT RightShoulder
      {
       OFFSET -13.519700 0.000000 0.000000
       CHANNELS 3 Yrotation Xrotation Zrotation
       JOINT RightElbow
       {
        OFFSET 0.000000 -29.696600 0.000000
        CHANNELS 3 Yrotation Xrotation Zrotation
        JOINT RightWrist
        {
         OFFSET 0.000000 -24.004700 0.000000
         CHANNELS 3 Yrotation Xrotation Zrotation
         End Site
         {
          OFFSET 0.000000 -17.728500 0.000000
         }
        }
       }
      }
     }
     JOINT LeftCollar
     {
      OFFSET 2.921100 9.558500 0.000000
      CHANNELS 3 Yrotation Xrotation Zrotation
      JOINT LeftShoulder
      {
       OFFSET 13.519700 0.000000 0.000000
       CHANNELS 3 Yrotation Xrotation Zrotation
       JOINT LeftElbow
       {
        OFFSET 0.000000 -29.696600 0.000000
        CHANNELS 3 Yrotation Xrotation Zrotation
        JOINT LeftWrist
        {
         OFFSET 0.000000 -24.004700 0.000000
         CHANNELS 3 Yrotation Xrotation Zrotation
         End Site
         {
          OFFSET 0.000000 -17.728500 0.000000
         }
        }
       }
      }
     }
    }
   }
  }
 }
 JOINT RightHip
 {
  OFFSET -7.771700 -0.012900 -0.001300
  CHANNELS 3 Yrotation Xrotation Zrotation
  JOINT RightKnee
  {
   OFFSET 0.000000 -40.869800 0.001200
   CHANNELS 3 Yrotation Xrotation Zrotation
   JOINT RightAnkle
   {
    OFFSET 0.000000 -39.717900 0.002100
    CHANNELS 3 Yrotation Xrotation Zrotation
    JOINT RightToe
    {
     OFFSET 0.000000 -4.965400 11.033500
     CHANNELS 3 Yrotation Xrotation Zrotation
     End Site
     {
      OFFSET 0.000000 -1.423100 5.872300
     }
    }
   }
  }
 }
 JOINT LeftHip
 {
  OFFSET 7.771700 -0.012900 -0.001300
  CHANNELS 3 Yrotation Xrotation Zrotation
  JOINT LeftKnee
  {
   OFFSET 0.000000 -40.869800 0.001200
   CHANNELS 3 Yrotation Xrotation Zrotation
   JOINT LeftAnkle
   {
    OFFSET 0.000000 -39.717900 0.002100
    CHANNELS 3 Yrotation Xrotation Zrotation
    JOINT LeftToe
    {
     OFFSET 0.000000 -4.965400 11.033500
     CHANNELS 3 Yrotation Xrotation Zrotation
     End Site
     {
      OFFSET 0.000000 -1.423100 5.872300
     }
    }
   }
  }
 }
}
MOTION
Frames: 11
Frame Time: 0.008333
-234.350916 60.537215 -73.166024 158.123710 -21.035255 2.784299 2.793120 15.574758 1.432996 0.242851 1.507871 0.117788 0.409266 2.528931 0.201174 2.364119 13.829297 1.345375 1.934162 16.596234 -1.876797 2.464991 -8.255978 -2.417597 7.242204 3.292960 -3.680911 14.455846 -17.283430 -13.292054 3.673369 -60.089021 5.600344 4.431179 0.620122 -35.453321 -9.278770 -3.082559 -7.522718 -3.126269 -16.221981 8.813769 -66.122825 -42.571861 52.347874 -8.809395 1.888304 15.856800 0.029610 -48.320795 3.448474 -21.270390 70.121106 -17.394838 -0.003747 -4.481961 -3.250250 -0.007219 -0.207126 0.002378 14.643064 -47.854767 -2.244103 25.316638 66.335229 25.468289 -16.473725 -16.488656 1.005580 0.084797 0.124114 0.032995
-234.378248 60.533414 -73.174739 158.105567 -21.034583 2.821300 2.772078 15.578392 1.381464 0.240184 1.504963 0.118181 0.424355 2.533898 0.206696 2.349006 13.811700 1.346368 1.815439 16.613585 -1.940483 2.354075 -8.238835 -2.457405 7.238992 3.350708 -3.722888 14.416889 -17.391705 -13.380144 -0.939621 -59.891615 10.192423 3.262526 0.336830 -34.979989 -9.257317 -3.068013 -7.524638 -3.120452 -16.197429 8.836849 -66.140589 -42.599614 52.361115 -8.798623 1.895398 15.872247 0.327772 -48.346253 3.165978 -21.245823 70.165567 -17.210560 0.008848 -4.438203 -3.228833 -0.047820 -0.250240 -0.014210 14.714957 -47.847352 -2.302050 25.295631 66.342593 25.446531 -16.521649 -16.502654 1.008618 0.125441 0.140536 0.058832
-234.402200 60.529481 -73.180782 158.131922 -21.023900 2.810542 2.731503 15.556627 1.373828 0.238115 1.501712 0.118456 0.401322 2.519009 0.202287 2.353571 13.809633 1.352465 1.691379 16.641874 -2.005137 2.237856 -8.209915 -2.497034 7.241183 3.410118 -3.748783 14.309700 -17.506606 -13.482810 -5.157277 -59.623549 14.514324 2.122116 0.049512 -34.234302 -9.244750 -3.037405 -7.526282 -3.096210 -16.195360 8.834813 -66.150773 -42.601511 52.359090 -8.786725 1.896329 15.885964 0.538935 -48.367243 2.943855 -21.212580 70.192809 -17.024318 0.010461 -4.489731 -3.218909 -0.070198 -0.198396 -0.019321 14.707165 -47.857842 -2.306595 25.291266 66.338399 25.431815 -16.605075 -16.470014 1.023931 0.080487 0.119729 0.056488
-234.422989 60.527774 -73.189198 158.140275 -21.028638 2.797095 2.706813 15.546003 1.377490 0.235858 1.497619 0.118859 0.397535 2.512472 0.202840 2.336048 13.794612 1.355447 1.561193 16.678497 -2.072177 2.115692 -8.171895 -2.537793 7.264038 3.463447 -3.762628 14.132866 -17.612644 -13.603022 -8.963593 -59.322903 18.542761 1.103377 -0.276744 -33.143294 -9.235339 -3.003704 -7.537480 -3.066888 -16.186602 8.837082 -66.180480 -42.595471 52.345463 -8.767528 1.906855 15.921258 0.709788 -48.357119 2.780950 -21.206152 70.197320 -16.888689 0.013222 -4.512585 -3.224218 -0.079264 -0.173898 -0.014827 14.697973 -47.852192 -2.293594 25.276200 66.335582 25.420381 -16.697433 -16.470071 1.024029 0.084237 0.128353 0.063621
-234.439421 60.527441 -73.196537 158.152485 -21.031346 2.768990 2.681747 15.533128 1.395624 0.233505 1.493396 0.119328 0.393636 2.505652 0.203594 2.318083 13.778888 1.359533 1.423311 16.719263 -2.142576 1.986288 -8.129258 -2.580425 7.287100 3.514345 -3.774344 13.916863 -17.716359 -13.734365 -12.316111 -59.054059 22.244806 0.225762 -0.596431 -31.742644 -9.242636 -2.977780 -7.540975 -3.029574 -16.158207 8.842103 -66.192934 -42.606461 52.355808 -8.748570 1.914773 15.939554 0.780131 -48.340295 2.720582 -21.123404 70.192516 -16.755489 -0.008884 -4.536465 -3.215103 -0.089283 -0.146059 -0.014538 14.675958 -47.852561 -2.268931 25.280495 66.329471 25.416893 -16.689849 -16.452955 1.023873 0.106590 0.123564 0.073414
-234.451450 60.529154 -73.204241 158.151747 -21.040502 2.743605 2.669654 15.529830 1.417277 0.231271 1.489458 0.119937 0.389980 2.499237 0.204687 2.301353 13.764087 1.365271 1.275885 16.761929 -2.216598 1.847823 -8.084425 -2.624845 7.291679 3.552254 -3.775256 13.693870 -17.809208 -13.882113 -15.296642 -58.878780 25.704756 -0.539166 -0.839881 -30.117780 -9.240947 -2.951688 -7.549220 -3.001420 -16.129371 8.853798 -66.199858 -42.628767 52.370926 -8.747898 1.916387 15.950134 0.760207 -48.310312 2.755815 -21.026601 70.175157 -16.679213 -0.029793 -4.533226 -3.197305 -0.099965 -0.143928 -0.013630 14.667955 -47.844428 -2.245105 25.292759 66.320760 25.423708 -16.667369 -16.469993 1.020099 0.169816 0.153535 0.094715
-234.456354 60.531212 -73.207325 158.173515 -21.035457 2.687107 2.653116 15.516660 1.465109 0.217259 1.481868 0.122636 0.386508 2.493299 0.206064 2.297358 13.757382 1.367771 1.111489 16.799203 -2.287017 1.702027 -8.036858 -2.672079 7.247307 3.553117 -3.748758 13.501631 -17.876854 -14.052818 -18.047396 -58.813850 29.058334 -1.206112 -0.989873 -28.374735 -9.246173 -2.933902 -7.555053 -2.986294 -16.102822 8.868126 -66.200010 -42.646647 52.383917 -8.748632 1.914673 15.966252 0.601394 -48.293422 2.908515 -20.979990 70.147381 -16.705413 -0.059431 -4.551890 -3.200686 -0.074200 -0.123493 -0.002375 14.620385 -47.856156 -2.196330 25.291461 66.304409 25.422920 -16.611091 -16.458193 1.016393 0.170233 0.156635 0.099132
-234.459809 60.534194 -73.209451 158.195479 -21.026219 2.648207 2.630455 15.501059 1.494412 0.214875 1.480466 0.124405 0.384761 2.490450 0.206808 2.301197 13.757833 1.366951 0.923681 16.826416 -2.345762 1.549741 -7.987185 -2.723649 7.237292 3.555265 -3.744311 13.240802 -17.976599 -14.194587 -20.635706 -58.840623 32.364269 -1.760538 -1.042546 -26.646958 -9.254184 -2.929071 -7.554834 -3.004858 -16.075519 8.897520 -66.228463 -42.630096 52.375346 -8.703918 1.924147 16.034178 0.389567 -48.282162 3.103330 -20.945088 70.116704 -16.798192 -0.096375 -4.565071 -3.208264 -0.038511 -0.109366 0.017927 14.588238 -47.869309 -2.163793 25.278760 66.289990 25.412747 -16.626365 -16.436979 1.010310 0.251482 0.153050 0.121785
-234.461671 60.537256 -73.209391 158.205238 -21.007502 2.624853 2.599642 15.474871 1.513080 0.226960 1.482236 0.121697 0.382855 2.487797 0.207629 2.268412 13.737057 1.380966 0.757782 16.885572 -2.428898 1.389424 -7.936960 -2.778533 7.259450 3.582361 -3.762867 12.984419 -18.089912 -14.342586 -23.073393 -58.931147 35.623771 -2.165595 -1.007923 -25.040354 -9.225202 -2.907099 -7.582050 -3.070723 -16.013167 8.984944 -66.174236 -42.693887 52.385014 -8.707256 1.922905 16.067023 0.171654 -48.286705 3.310369 -21.046716 70.075090 -17.046095 -0.083239 -4.564868 -3.208916 -0.015946 -0.107213 0.026607 14.575235 -47.887972 -2.142775 25.296735 66.272473 25.425021 -16.675291 -16.422946 1.012736 0.199369 0.172129 0.112995
-234.461576 60.540848 -73.209120 158.204207 -20.994062 2.613188 2.582994 15.462390 1.529142 0.198962 1.478798 0.138087 0.404098 2.485123 0.193936 2.250423 13.728311 1.392058 0.578084 16.938642 -2.516166 1.222421 -7.884396 -2.834577 7.248915 3.598864 -3.779676 12.768759 -18.218745 -14.516843 -25.384295 -59.071920 38.839116 -2.400695 -0.966276 -23.596911 -9.223356 -2.897489 -7.602929 -3.052490 -16.003135 8.997205 -66.157674 -42.710637 52.383473 -8.725405 1.920612 16.072806 0.002222 -48.296637 3.471798 -21.128720 70.054267 -17.241622 -0.078826 -4.550186 -3.213109 0.012206 -0.122576 0.037299 14.582460 -47.900727 -2.128637 25.269621 66.273469 25.401913 -16.728570 -16.415616 1.012798 0.143356 0.181997 0.103720
-234.464268 60.544030 -73.208278 158.202561 -20.974779 2.628090 2.532195 15.442915 1.528650 0.220100 1.477152 0.125533 0.399368 2.486809 0.195601 2.230038 13.723664 1.402590 0.398009 16.988452 -2.607254 1.049936 -7.826483 -2.889416 7.238348 3.610504 -3.808792 12.579682 -18.362701 -14.707730 -27.602185 -59.279798 42.012243 -2.500807 -1.021231 -22.314381 -9.216039 -2.891957 -7.626022 -3.037055 -15.997564 9.009817 -66.163517 -42.710021 52.369811 -8.744686 1.910495 16.093682 -0.077275 -48.321966 3.527970 -21.151678 70.056098 -17.331364 -0.063525 -4.555010 -3.211583 0.011458 -0.118974 0.035023 14.613994 -47.916495 -2.152974 25.241099 66.276867 25.380013 -16.811871 -16.361444 1.015869 0.103151 0.142819 0.090797
